<?xml version="1.0" encoding="UTF-8"?>
<!-- Generator: Adobe Illustrator 18.0.0, SVG Export Plug-In . SVG Version: 6.00 Build 0)  -->
<!DOCTYPE svg PUBLIC "-//W3C//DTD SVG 1.1//EN" "http://www.w3.org/Graphics/SVG/1.1/DTD/svg11.dtd">
<svg version="1.1" id="Layer_1" xmlns="http://www.w3.org/2000/svg" xmlns:xlink="http://www.w3.org/1999/xlink" x="0px" y="0px" viewBox="0 0 58.9 34.4" enable-background="new 0 0 58.9 34.4" xml:space="preserve">
<g>
	<g>
		<defs>
			<rect id="SVGID_1_" x="0" y="0" width="58.9" height="34.4"/>
		</defs>
		<clipPath id="SVGID_2_">
			<use xlink:href="#SVGID_1_" overflow="visible"/>
		</clipPath>
		<rect x="0" y="0" clip-path="url(#SVGID_2_)" fill="#180087" width="58.9" height="34.4"/>
		<polygon clip-path="url(#SVGID_2_)" fill="#FFFFFF" points="15.5,21.1 16.4,23.8 19.1,22.8 17.5,25.3 20,26.7 17.1,27 17.5,29.9     15.5,27.8 13.5,29.9 13.9,27 11,26.7 13.5,25.3 11.9,22.8 14.6,23.8   "/>
		<polygon clip-path="url(#SVGID_2_)" fill="#FFFFFF" points="46.5,26.1 46.9,27.4 48.2,26.9 47.5,28.1 48.7,28.8 47.3,28.9     47.5,30.3 46.5,29.3 45.5,30.3 45.7,28.9 44.3,28.8 45.5,28.1 44.8,26.9 46.1,27.4   "/>
		<polygon clip-path="url(#SVGID_2_)" fill="#FFFFFF" points="38.8,13.8 39.2,15.1 40.5,14.6 39.7,15.8 40.9,16.5 39.5,16.6     39.7,18 38.8,17 37.8,18 38,16.6 36.6,16.5 37.8,15.8 37,14.6 38.3,15.1   "/>
		<polygon clip-path="url(#SVGID_2_)" fill="#FFFFFF" points="46.5,5.4 46.9,6.7 48.2,6.2 47.5,7.4 48.7,8.1 47.3,8.2 47.5,9.6     46.5,8.6 45.5,9.6 45.7,8.2 44.3,8.1 45.5,7.4 44.8,6.2 46.1,6.7   "/>
		<polygon clip-path="url(#SVGID_2_)" fill="#FFFFFF" points="53.4,11.7 53.8,13.1 55.1,12.6 54.4,13.7 55.6,14.4 54.2,14.6     54.4,16 53.4,14.9 52.4,16 52.6,14.6 51.2,14.4 52.4,13.7 51.7,12.6 53,13.1   "/>
		<polygon clip-path="url(#SVGID_2_)" fill="#FFFFFF" points="49.6,18 49.9,18.8 50.8,18.9 50.2,19.4 50.4,20.3 49.6,19.8     48.8,20.3 49.1,19.4 48.4,18.9 49.3,18.8   "/>
		<polygon clip-path="url(#SVGID_2_)" fill="#FFFFFF" points="12.9,0 12.9,5.2 0,5.2 0,10.3 12.9,10.3 12.9,15.5 18.1,15.5     18.1,10.3 31,10.3 31,5.2 18.1,5.2 18.1,0   "/>
		<polygon clip-path="url(#SVGID_2_)" fill="#FFFFFF" points="0,0 0,1.7 27.5,15.5 31,15.5 31,13.8 3.5,0   "/>
		<polygon clip-path="url(#SVGID_2_)" fill="#FFFFFF" points="27.5,0 0,13.8 0,15.5 3.5,15.5 31,1.7 31,0   "/>
		<polygon clip-path="url(#SVGID_2_)" fill="#EA0020" points="14,0 14,6.2 0,6.2 0,9.3 14,9.3 14,15.5 17.1,15.5 17.1,9.3 31,9.3     31,6.2 17.1,6.2 17.1,0   "/>
		<path clip-path="url(#SVGID_2_)" fill="#EA0020" d="M0,0v1.2l8,4h2.3L0,0z M28.7,0L18.4,5.2h2.3L31,0H28.7z"/>
		<path clip-path="url(#SVGID_2_)" fill="#EA0020" d="M10.3,10.3L0,15.5h2.3l10.3-5.2H10.3z M20.7,10.3L31,15.5v-1.2l-8-4H20.7z"/>
	</g>
</g>
</svg>