<?xml version="1.0" encoding="UTF-8"?>
<!-- Generator: Adobe Illustrator 18.0.0, SVG Export Plug-In . SVG Version: 6.00 Build 0)  -->
<!DOCTYPE svg PUBLIC "-//W3C//DTD SVG 1.1//EN" "http://www.w3.org/Graphics/SVG/1.1/DTD/svg11.dtd">
<svg version="1.1" id="Layer_1" xmlns="http://www.w3.org/2000/svg" xmlns:xlink="http://www.w3.org/1999/xlink" x="0px" y="0px" viewBox="0 0 92.5 74.4" enable-background="new 0 0 92.5 74.4" xml:space="preserve">
<path fill="#323031" d="M61.7,0H30.8C13.8,0,0,13.8,0,30.8c0,10.8,5.6,20.4,14.1,25.9c-0.6,3.7-3,13.2-11.1,17.7  c0,0,16.3-0.9,26.6-12.8c0.4,0,0.8,0.1,1.3,0.1h30.8c17,0,30.8-13.8,30.8-30.8C92.5,13.8,78.7,0,61.7,0z"/>
<path fill="#FFFFFF" d="M58.1,46.9H54l-6.3-21.7l-6.3,21.7h-4.1l-8.1-31h5L39.5,38l6.2-22.2h3.8L55.8,38l5.4-22.2h5L58.1,46.9z"/>
</svg>