<?xml version="1.0" encoding="UTF-8"?>
<!-- Generator: Adobe Illustrator 18.0.0, SVG Export Plug-In . SVG Version: 6.00 Build 0)  -->
<!DOCTYPE svg PUBLIC "-//W3C//DTD SVG 1.1//EN" "http://www.w3.org/Graphics/SVG/1.1/DTD/svg11.dtd">
<svg version="1.1" id="Layer_1" xmlns="http://www.w3.org/2000/svg" xmlns:xlink="http://www.w3.org/1999/xlink" x="0px" y="0px" viewBox="0 0 58.9 34.4" enable-background="new 0 0 58.9 34.4" xml:space="preserve">
<g>
	<g>
		<defs>
			<rect id="SVGID_1_" x="0" y="0" width="58.9" height="34.4"/>
		</defs>
		<clipPath id="SVGID_2_">
			<use xlink:href="#SVGID_1_" overflow="visible"/>
		</clipPath>
		<rect x="0" y="0" clip-path="url(#SVGID_2_)" fill="#EA0020" width="13.9" height="34.4"/>
		<rect x="45.1" y="0" clip-path="url(#SVGID_2_)" fill="#EA0020" width="13.9" height="34.4"/>
		<rect x="13.9" y="0" clip-path="url(#SVGID_2_)" fill="#FFFFFF" width="31.2" height="34.4"/>
		<g clip-path="url(#SVGID_2_)">
			<defs>
				<rect id="SVGID_3_" x="0" y="0" width="58.9" height="34.4"/>
			</defs>
			<clipPath id="SVGID_4_">
				<use xlink:href="#SVGID_3_" overflow="visible"/>
			</clipPath>
			<path clip-path="url(#SVGID_4_)" fill="#EA0020" d="M29.5,4.5l-2,4c-0.2,0.4-0.6,0.4-1.1,0.1l-1.5-0.8l1.1,6.1     c0.2,1.1-0.5,1.1-0.9,0.6l-2.6-3L22.1,13c0,0.2-0.3,0.4-0.6,0.4l-3.3-0.7l0.9,3.2c0.2,0.7,0.3,1-0.2,1.2l-1.2,0.6l5.6,4.8     c0.2,0.2,0.3,0.5,0.3,0.8l-0.5,1.7c1.9-0.2,3.7-0.4,5.6-0.7c0.2,0,0.5,0.2,0.5,0.4L29,30.8h0.9l-0.1-6.2c0-0.2,0.3-0.4,0.4-0.4     c1.9,0.2,3.7,0.4,5.6,0.7l-0.5-1.7c-0.1-0.3,0-0.6,0.3-0.8l5.6-4.8L40,17.1c-0.5-0.2-0.4-0.5-0.2-1.2l0.9-3.2l-3.3,0.7     c-0.3,0.1-0.5-0.2-0.6-0.4l-0.4-1.5l-2.6,3c-0.4,0.5-1.1,0.5-0.9-0.6L34,7.8l-1.5,0.8c-0.4,0.2-0.8,0.3-1.1-0.1L29.5,4.5z"/>
		</g>
	</g>
</g>
</svg>