<?xml version="1.0" encoding="UTF-8"?>
<!-- Generator: Adobe Illustrator 18.0.0, SVG Export Plug-In . SVG Version: 6.00 Build 0)  -->
<!DOCTYPE svg PUBLIC "-//W3C//DTD SVG 1.1//EN" "http://www.w3.org/Graphics/SVG/1.1/DTD/svg11.dtd">
<svg version="1.1" id="Layer_1" xmlns="http://www.w3.org/2000/svg" xmlns:xlink="http://www.w3.org/1999/xlink" x="0px" y="0px" viewBox="0 0 58.9 34.4" enable-background="new 0 0 58.9 34.4" xml:space="preserve">
<g>
	<g>
		<defs>
			<rect id="SVGID_1_" x="0" y="0" width="58.9" height="34.4"/>
		</defs>
		<clipPath id="SVGID_2_">
			<use xlink:href="#SVGID_1_" overflow="visible"/>
		</clipPath>
		<rect x="0" y="0" clip-path="url(#SVGID_2_)" fill="#213095" width="58.9" height="34.4"/>
		<polygon clip-path="url(#SVGID_2_)" fill="#F5CB27" points="29.5,3.8 29,5.1 27.6,5.1 28.8,6 28.3,7.3 29.5,6.5 30.6,7.3 30.2,6     31.3,5.1 29.9,5.1   "/>
		<polygon clip-path="url(#SVGID_2_)" fill="#F5CB27" points="29.9,28.1 29.5,26.7 29,28.1 27.6,28.1 28.8,28.9 28.3,30.2     29.5,29.4 30.6,30.2 30.2,28.9 31.3,28.1   "/>
		<polygon clip-path="url(#SVGID_2_)" fill="#F5CB27" points="18,17.9 19.1,18.7 18.7,17.4 19.8,16.6 18.4,16.6 18,15.3 17.6,16.6     16.2,16.6 17.3,17.4 16.9,18.7   "/>
		<polygon clip-path="url(#SVGID_2_)" fill="#F5CB27" points="23.7,5.4 23.3,6.7 21.9,6.7 23,7.5 22.6,8.8 23.7,8 24.9,8.8     24.4,7.5 25.6,6.7 24.2,6.7   "/>
		<polygon clip-path="url(#SVGID_2_)" fill="#F5CB27" points="19.5,9.5 19.1,10.9 17.7,10.9 18.8,11.7 18.4,13 19.5,12.2 20.7,13     20.2,11.7 21.4,10.9 20,10.9   "/>
		<polygon clip-path="url(#SVGID_2_)" fill="#F5CB27" points="20,22.3 19.5,21 19.1,22.3 17.7,22.3 18.8,23.1 18.4,24.5 19.5,23.6     20.7,24.5 20.2,23.1 21.4,22.3   "/>
		<polygon clip-path="url(#SVGID_2_)" fill="#F5CB27" points="24.2,26.5 23.7,25.2 23.3,26.5 21.9,26.5 23,27.3 22.6,28.7     23.7,27.8 24.9,28.7 24.4,27.3 25.6,26.5   "/>
		<polygon clip-path="url(#SVGID_2_)" fill="#F5CB27" points="42.7,16.6 41.3,16.6 40.9,15.3 40.5,16.6 39.1,16.6 40.2,17.4     39.8,18.7 40.9,17.9 42,18.7 41.6,17.4   "/>
		<polygon clip-path="url(#SVGID_2_)" fill="#F5CB27" points="35.2,5.4 34.8,6.7 33.4,6.7 34.5,7.5 34.1,8.8 35.2,8 36.3,8.8     35.9,7.5 37,6.7 35.6,6.7   "/>
		<polygon clip-path="url(#SVGID_2_)" fill="#F5CB27" points="38.7,11.7 38.3,13 39.4,12.2 40.5,13 40.1,11.7 41.2,10.9 39.8,10.9     39.4,9.5 39,10.9 37.6,10.9   "/>
		<polygon clip-path="url(#SVGID_2_)" fill="#F5CB27" points="39.8,22.3 39.4,21 39,22.3 37.6,22.3 38.7,23.1 38.3,24.5 39.4,23.6     40.5,24.5 40.1,23.1 41.2,22.3   "/>
		<polygon clip-path="url(#SVGID_2_)" fill="#F5CB27" points="35.6,26.5 35.2,25.2 34.8,26.5 33.4,26.5 34.5,27.3 34.1,28.7     35.2,27.8 36.3,28.7 35.9,27.3 37,26.5   "/>
	</g>
</g>
</svg>