<?xml version="1.0" encoding="UTF-8"?>
<!-- Generator: Adobe Illustrator 18.0.0, SVG Export Plug-In . SVG Version: 6.00 Build 0)  -->
<!DOCTYPE svg PUBLIC "-//W3C//DTD SVG 1.1//EN" "http://www.w3.org/Graphics/SVG/1.1/DTD/svg11.dtd">
<svg version="1.1" id="Layer_1" xmlns="http://www.w3.org/2000/svg" xmlns:xlink="http://www.w3.org/1999/xlink" x="0px" y="0px" viewBox="0 0 103.2 87.4" enable-background="new 0 0 103.2 87.4" xml:space="preserve">
<g>
	<path fill-rule="evenodd" clip-rule="evenodd" fill="#323031" d="M55.6,0.2c-3.3,4.3-7.4,4.9-11,4.4c1.8,3.8,4.3,7.6,5.4,11.8   c1.8,6.9-0.9,12.9-6.4,17.1C35,40,36.2,44,44.4,50c6.7,5,10.5,11,9.5,19.5c-0.8,6.5-4.5,11.1-10.1,13.8c-12.2,6-24.6,5.3-36.4-1   C-1,77.9-2.3,69.5,3.7,62c5.7-7,13.5-9.6,22.2-10c1.5-0.1,2.9,0,5,0c-3.1-3.9-4.6-7.7-2.4-12.1c-3.1-0.4-5.8-0.5-8.3-1.2   c-7.2-2-12-6.7-13.8-14.1C4.5,17,7,10.5,13.3,6.1c3.9-2.7,8.8-5.2,13.5-5.7C36.2-0.4,45.6,0.2,55.6,0.2z M28.9,54.6   c-0.1-0.3-0.2-0.6-0.3-0.9c-4,1.4-8.4,2.3-12.1,4.4c-9.3,5.4-9.1,16.7,0.2,22c8.1,4.6,16.7,4,24.7-0.3c5.9-3.1,7.9-11.9,3.8-16.8   C41.2,58.1,36.1,54.1,28.9,54.6z M40.8,23.9c0-7.5-3.2-13.9-8.3-17.5c-6.7-4.7-14.4-2.1-16.3,5.7c-2,8.2,0.2,15.4,6.3,21.2   c3.2,3,7.1,4.4,11.4,2.7c4.3-1.7,6-5.5,6.7-9.7C40.8,25.4,40.8,24.4,40.8,23.9z"/>
	<path fill-rule="evenodd" clip-rule="evenodd" fill="#323031" d="M103.2,22c-6,0-11.4,0-17.4,0c0,5.9,0,11.5,0,17.3   c-1.7,0-2.8,0-4.4,0c0-5.6,0-11.2,0-17.1c-5.9,0-11.5,0-17.3,0c0-1.6,0-2.9,0-4.5c5.6,0,11.1,0,17,0c0-5.9,0-11.4,0-17.3   c1.6,0,2.9,0,4.5,0c0,5.6,0,11.1,0,17c5.8,0,11.4,0,17.3,0C103.1,19,103.1,20.2,103.2,22z"/>
</g>
</svg>