<?xml version="1.0" encoding="UTF-8"?>
<!-- Generator: Adobe Illustrator 18.0.0, SVG Export Plug-In . SVG Version: 6.00 Build 0)  -->
<!DOCTYPE svg PUBLIC "-//W3C//DTD SVG 1.1//EN" "http://www.w3.org/Graphics/SVG/1.1/DTD/svg11.dtd">
<svg version="1.1" id="Layer_1" xmlns="http://www.w3.org/2000/svg" xmlns:xlink="http://www.w3.org/1999/xlink" x="0px" y="0px" viewBox="0 0 274.9 92.5" enable-background="new 0 0 274.9 92.5" xml:space="preserve">
<g>
	<path fill-rule="evenodd" clip-rule="evenodd" fill="#323031" d="M160.1,52.4c-2.1,3.2-3.8,6.6-8.7,5.6c-3.9-0.8-7-2.2-8.1-6.7   c-2.4,2.4-4.3,5-7.9,4.2c-3.3-0.7-4.7-3.3-5.8-6.3c-2.3,3.9-3.2,9.1-8.9,9.1c-5.8,0-9.3-3-9.9-9.6c-0.7,1.2-1,1.7-1.2,2.2   c-0.8,1.5-1.5,3.1-2.4,4.4c-3.2,4.2-8.1,4.3-11.3,0.1c-2.8-3.6-3.6-8-3.7-12.4c-0.1-6.3,0.2-12.6,0.5-19c0.1-2.3-0.8-3-2.9-3.3   c-1.7-0.3-3.4-0.8-5-1.5c-0.6-0.2-1-1.3-1-1.9c0-0.4,1-1,1.6-1.1c1.8-0.2,3.7-0.4,5.5-0.3c1.6,0,2.3-0.5,2.4-2.2   c0.1-3.2,0.3-6.4,0.4-9.6c0.2-2.6,0.6-2.9,3.1-2.5c0.6,0.1,1.1,0.2,1.6,0.3c2.3,0.5,3.6,1.6,3.2,4.3c-0.4,3.1-0.4,6.2-0.7,9.4   c3.3,0.4,6.3,0.7,9.3,1.1c0.7,0.1,1.5,0.2,2,0.6c0.6,0.5,0.8,1.3,1.2,2c-0.6,0.2-1.3,0.6-2,0.7c-3.1,0.3-6.2,0.4-9.3,0.8   c-0.6,0.1-1.6,1-1.6,1.6c-0.1,8.8-0.1,17.6-0.1,26.4c0,0.4,0,0.9,0.3,1.1c0.5,0.8,1.1,2.1,1.9,2.2c0.7,0.1,2-0.6,2.5-1.4   c1-1.5,1.9-3.2,2.4-4.9c1.6-5.1,3.2-10.1,3.9-15.5c0.4-3.1,1.6-6.2,3-9c1.9-3.8,5.5-5.2,9.5-4.1c2.3,0.6,4.7,1.4,6.6,2.7   c1.4,0.9,2.5,2.7,3,4.3c0.6,1.8,0.3,4,0.6,5.9c0.1,1,0.7,2.1,1.4,2.6c1.5,1.1,0.9,2.3,0.9,3.7c-0.2,3.7-0.5,7.5-0.3,11.2   c0.1,1.3,1.4,2.5,2.1,3.7c1.1-1.1,2.7-2.1,3.2-3.4c0.7-2.2,0.7-4.7,1.1-7c0.6-4.9,1.1-9.8,2-14.7c0.3-1.9,1.4-3.8,2.5-5.4   c2.1-3.2,5-3.9,8.6-2.6c1.9,0.7,3.8,1.2,5.7,1.9c3.5,1.2,5.2,4,4.8,7.6c-0.1,1-0.2,2.1-0.3,3.1c-0.2,1.6,0.1,2.8,1.9,3.3   c0.5,0.2,1,1.4,1,2.1c-0.4,6-0.9,11.9-1.2,17.9c0,0.5,1,1.1,1.5,1.6c0.9,0.8,1.9,1.4,2.8,2.2c-0.9,0.6-1.8,1.5-2.8,1.6   c-1.4,0.3-1.7,1-1.7,2.1c0,2.9,0.2,5.8,0.1,8.6c-0.3,5.3-0.3,10.7-1.2,16c-0.9,5.4-3.5,7-9,6.7c-0.3,0-0.7,0-1-0.1   c-8.9-1.2-11.7-5-9.8-13.8c1.8-7.9,5.6-14.7,12-20c0.7-0.6,1.2-1.6,1.4-2.5C160.1,54.9,160,53.6,160.1,52.4z M116.6,41.5   c0.3,3.3,0.4,5.7,0.8,8c0.3,1.8,0.7,4.2,2.8,4.1c1.5-0.1,2.9-1.8,4.1-3.1c0.7-0.7,0.9-1.8,1.1-2.8c0.5-2.3,0.8-4.7,1.2-7.1   c0.4-2.7,0.6-5.4,1.4-7.9c1-2.9,0.2-7.2-2.2-8.3c-2.3-1.1-5,0.5-6.6,3.7c-0.5,0.9-0.9,1.9-1.1,2.9C117.6,34.8,117,38.5,116.6,41.5z    M160.4,29.8c-0.3-1.3-0.4-2.4-0.8-3.5c-1.1-3.4-4-4.2-6.4-1.6c-1.4,1.5-2.5,3.5-3.2,5.5c-1.9,5.5-1.8,11.2-1.4,16.8   c0.1,1.3,0.5,2.7,1,3.9c0.9,2.1,2.6,2.4,4.2,0.8c1.2-1.3,2.5-2.9,2.9-4.6C158.2,41.4,159.2,35.5,160.4,29.8z M160.4,62   c-0.4-0.2-0.9-0.4-1.3-0.5c-0.6,0.7-1.1,1.5-1.7,2.3c-3.4,4.5-5.6,9.4-6.4,15c-0.3,2.1-0.3,4.3,0.1,6.4c0.7,3.2,3.6,3.8,5.7,1.3   c1-1.2,1.9-2.7,2-4.2C159.4,75.4,159.9,68.7,160.4,62z"/>
	<path fill-rule="evenodd" clip-rule="evenodd" fill="#323031" d="M213.7,49c-2.3,3.9-2.9,8.9-8.6,9c-5.3,0.1-8.8-2-10-7.9   c-1,1.7-1.5,2.9-2.3,4c-3.1,4.8-8.7,4.7-11.3-0.4c-2.7-5.2-3.3-10.8-2.7-16.6c0.2-1.8,0.4-3.7,0.3-5.5c0-0.7-1-1.3-1.5-2   c-0.6,0.6-1.6,1.1-1.7,1.7c-0.8,4-1.2,8.1-1.9,12.1c-0.2,1.1-0.7,2.2-1.3,3c-0.4,0.5-1.4,0.6-2,0.8c-0.2-0.6-0.7-1.3-0.6-1.9   c0.2-2.2,0.9-4.4,0.9-6.6c0.1-5.3,0-10.5,0-15.8c0-2.4,1.8-4.1,4.3-4c1.8,0.1,2,1.3,2.1,2.6c0.3,3.4,0.3,3.4,3.8,3.5   c0.4,0,0.8,0,1.2,0c5.5,0.2,6.4,1.7,4.9,6.8c-1.7,5.4-2.1,11-1.5,16.6c0.1,1.5,1.1,3.9,2.2,4.2c2,0.6,3-1.7,3.3-3.3   c1.4-5.7,2.4-11.5,3.8-17.3c0.9-3.7,1.8-7.5,3.4-10.9c2.1-4.5,6.3-5.8,10.9-3.9c1.3,0.5,2.6,1.2,4,1.6c2.9,0.8,4.2,2.8,4.5,5.6   c0.2,1.6,0.3,3.2,0.3,4.8c0,1.5,0.3,2.6,1.7,3.6c0.7,0.5,0.6,2.2,0.6,3.4c0,3.8-0.3,7.6-0.2,11.4c0.1,1.1,1.3,2.1,2,3.2   c1-0.9,2.6-1.6,3-2.6c1.2-3.8,2.3-7.7,2.7-11.6c0.5-4.3,0.3-8.6,0.2-12.9c0-2.1,0.7-2.9,2.8-2.8c3.8,0.2,4.6,0.9,4.6,4.6   c0,4.8,0,9.6,0.3,14.4c1.1-3.1,2.1-6.3,3.3-9.4c1.3-3.1,2.9-3.9,6-3.3c2.3,0.4,3.4,1.6,3.3,3.9c0,3.9,0,7.8,0.4,11.9   c0.3-0.6,0.6-1.3,0.8-2c1.8-4.8,3.6-9.6,5.3-14.4c0.9-2.4,2.6-3,4.7-2.4c1.2,0.3,2.4,0.9,3.5,1.5c2,1,2.5,2.6,1.8,4.8   c-1.8,5.8-2.2,11.8-1.1,17.8c0.2,1.1,1.3,2.9,1.8,2.9c1.2-0.1,2.8-0.9,3.4-2c1.1-1.8,1.5-4,2.2-6.1c0.3-1,0.5-2,0.9-2.9   c0.2-0.4,0.9-1,1.2-0.9c0.5,0.1,1,0.7,1.3,1.1c0.2,0.2,0.2,0.6,0.1,0.9c-0.7,5.3-2.1,10.4-6.4,14c-2.9,2.5-6.6,2-9.2-0.9   c-2.4-2.7-3.2-6-3.3-9.5c-0.1-3.1,0-6.2-0.5-9.4c-0.6,1.3-1.3,2.7-1.7,4.1c-1.1,3.9-2.2,7.8-3.2,11.8c-0.4,1.7-0.6,3.3-2.9,3.5   c-2.9,0.2-5.1-0.7-5.6-3c-0.6-2.5-0.6-5.1-0.7-7.6c-0.1-2.4,0-4.9,0-7.3c-0.3,0-0.7-0.1-1-0.1c-0.7,3.4-1.4,6.8-1.9,10.2   c-0.4,2.2-0.4,4.4-0.6,6.7c-0.2,2.6-1,3.3-3.6,3.3c-4.6,0-5.5-1-6.5-6.8c-2.1,2.6-4,5.5-7.7,5C216.5,55,214.9,52.3,213.7,49z    M200.3,42.5c0.1,0,0.2,0.1,0.4,0.1c0.2,2.3,0.4,4.6,0.7,6.9c0.3,1.8,0.7,3.8,2.8,4.1c2.1,0.2,3.5-1.4,4.3-3.2   c0.6-1.2,1-2.4,1.3-3.6c0.5-2.4,0.7-4.9,1-7.4c0.3-2,0.2-4.3,1.1-6.1c1.2-2.4,1-4.5,0.1-6.7c-1.1-2.8-3.9-3.6-6.2-1.6   c-1.3,1.1-2.5,2.7-2.9,4.3C201.8,33.7,201.1,38.2,200.3,42.5z"/>
	<path fill-rule="evenodd" clip-rule="evenodd" fill="#323031" d="M54.6,37.7c-1.1,4.4-2.2,8.8-3.1,13.2c-0.9,4.1-2.6,5.3-6.7,4.1   c-0.9-0.3-2-1.3-2.2-2.2c-0.5-2-0.6-4.1-0.6-6.2c0.2-7.4,0.6-14.9,1-22.3c0.1-1.5-0.4-3.5,2.1-3.5c2.7,0,4.6,1.4,4.7,3.7   c0.1,3.4-0.1,6.9-0.1,10.3c0,1.2,0,2.3,0.4,3.5c1-2.3,2-4.6,3.1-6.9c0.5-1,1-2.1,1.8-2.8c1.1-0.9,2.7-2.1,3.8-1.9   c1.2,0.3,2.8,1.9,3,3.1c0.5,2.9,0.4,6,0.4,9c0.1,2.6,0.1,5.3,0.3,7.9c0.1,0.7,0.8,2.1,1.2,2c0.9-0.1,2.2-0.5,2.6-1.2   c1-1.8,1.5-3.8,2.2-5.8c0.4-1.1,0.8-2.3,1.4-4c0.1,0.5,0.1,0.3,0,0.2c-3.3-6.5-2-10.7,4.7-13.7c3.2-1.4,6.7-2.1,10.1-2.6   c1.8-0.3,3.9,0.1,4.7,2.4c0.6,1.8-0.7,5.6-2.4,6.3c-0.9,0.4-2.4,0.2-3.2-0.3c-2.3-1.3-4.1-1.3-5.9,0.3c-1.8,1.6-2.2,4-0.6,6.1   c1.5,1.9,3.5,3.5,5.3,5.2c1.8,1.7,3.9,3,5.6,4.8c2.5,2.7,1.8,5.8-1.5,7.5c-5.6,2.8-14.4,1.7-18.7-2.3c-1.7,0.7-3.4,1.7-5.1,2   c-3.5,0.7-6.3-1.4-6.9-5c-0.4-2.7-0.3-5.4-0.4-8.1c0-0.9,0-1.8,0-2.8C55.4,37.8,55,37.7,54.6,37.7z M70.4,47.7   c1.6,1.1,2.9,2.3,4.5,3c1.5,0.8,3.2,1.5,4.9,1.5c1.9,0.1,2.8-1.6,1.8-3.1c-2.4-3.6-6.2-5.6-9.5-8.3C71.4,43.4,70.9,45.6,70.4,47.7z   "/>
	<path fill-rule="evenodd" clip-rule="evenodd" fill="#323031" d="M29,39.9c-1.7-0.4-3.3-0.5-4.8-1.1c-5.6-1.9-7.8-6.5-8.4-11.8   c-1-8.3,0.9-16,5.7-23c2.3-3.3,5.2-4.7,9.1-3.9c0.8,0.1,1.6,0.2,2.4,0.3c3.9,0.2,4.2,0.2,4.2,4.1c-0.1,12.4,0.2,24.8-0.7,37.2   c-1,13.5-9.5,18.1-22.8,17c-1.5-0.1-3-0.5-4.4-0.9C1.1,55.2-2.6,44.8,2,37.7c0.9-1.4,2.6-2.6,4.2-3.3c2.3-1,4.4,0.7,3.9,3.1   c-0.4,1.8-1.2,3.8-2.5,5C3,46.6,5.8,52.7,11.1,54c8.4,2,17.2-4,18-12.5C29.1,41,29,40.4,29,39.9z M29.2,11.5   c0.3-0.1,0.6-0.2,0.9-0.3c-0.6-1.2-1-3-2-3.6c-1.8-1-3.1,0.7-4.1,2c-0.5,0.7-1,1.5-1.3,2.3c-2.3,6-2,12.1,0.1,18   c0.5,1.4,2,2.7,3.4,3.3c2.1,1,2.9,0.3,2.9-2C29.2,24.8,29.2,18.1,29.2,11.5z"/>
</g>
</svg>