<?xml version="1.0" encoding="utf-8"?>
<!-- Generator: Adobe Illustrator 18.0.0, SVG Export Plug-In . SVG Version: 6.00 Build 0)  -->
<!DOCTYPE svg PUBLIC "-//W3C//DTD SVG 1.1//EN" "http://www.w3.org/Graphics/SVG/1.1/DTD/svg11.dtd">
<svg version="1.1" id="Layer_1" xmlns="http://www.w3.org/2000/svg" xmlns:xlink="http://www.w3.org/1999/xlink" x="0px" y="0px"
	 viewBox="0 0 862 104.6" enable-background="new 0 0 862 104.6" xml:space="preserve">
<g>
	<g>
		<g>
			<path fill="#202221" d="M95.9,103.8H82.3l-21-72.1l-20.8,72.1H26.9L0,0.9h16.5l17.9,73.6L55.1,0.9h12.6l20.7,73.6l17.9-73.6h16.5
				L95.9,103.8z"/>
			<path fill="#202221" d="M206.7,52.3c0,4.9,0,9.4-0.1,13.4c-0.1,4-0.4,7.6-1,10.9c-0.6,3.3-1.6,6.3-2.9,9.1
				c-1.3,2.8-3.3,5.5-5.8,8c-3.6,3.6-7.6,6.3-12.1,8.2c-4.6,1.9-9.6,2.8-15.1,2.8c-5.5,0-10.5-0.9-15-2.8c-4.5-1.9-8.5-4.6-12.1-8.2
				c-2.5-2.5-4.4-5.2-5.8-8c-1.4-2.8-2.3-5.8-3-9.1c-0.6-3.3-1-6.9-1.1-10.9c-0.1-4-0.2-8.5-0.2-13.4c0-4.9,0-9.4,0.2-13.4
				c0.1-4,0.4-7.6,1.1-10.9c0.6-3.3,1.6-6.3,3-9.1c1.4-2.8,3.3-5.4,5.8-7.9c3.6-3.6,7.6-6.3,12.1-8.2c4.5-1.9,9.5-2.8,15-2.8
				c5.5,0,10.5,1,15.1,2.8c4.5,1.9,8.6,4.6,12.1,8.2c2.5,2.5,4.5,5.1,5.8,7.9c1.4,2.8,2.3,5.8,2.9,9.1c0.6,3.3,0.9,6.9,1,10.9
				C206.7,42.9,206.7,47.4,206.7,52.3z M191.1,52.3c0-5.2-0.1-9.5-0.2-12.9c-0.1-3.4-0.4-6.3-0.9-8.7c-0.4-2.4-1.1-4.3-1.9-5.9
				c-0.9-1.6-1.9-3-3.1-4.4c-1.8-1.9-4.1-3.5-6.7-4.6c-2.7-1.2-5.5-1.7-8.6-1.7c-3.1,0-6,0.6-8.6,1.7c-2.7,1.2-4.9,2.7-6.7,4.6
				c-1.3,1.3-2.3,2.8-3.1,4.4c-0.8,1.6-1.4,3.6-1.9,5.9c-0.4,2.3-0.7,5.2-0.9,8.7c-0.1,3.4-0.2,7.7-0.2,12.9c0,5.2,0.1,9.5,0.2,12.9
				c0.1,3.4,0.4,6.3,0.9,8.7c0.4,2.4,1.1,4.3,1.9,5.9c0.8,1.6,1.9,3,3.1,4.4c1.8,1.9,4.1,3.5,6.7,4.6c2.7,1.2,5.5,1.7,8.6,1.7
				c3.1,0,5.9-0.6,8.6-1.7c2.6-1.1,4.9-2.7,6.7-4.6c1.3-1.3,2.3-2.8,3.1-4.4c0.8-1.6,1.4-3.6,1.9-5.9c0.4-2.4,0.7-5.2,0.9-8.7
				C191,61.8,191.1,57.5,191.1,52.3z"/>
			<path fill="#202221" d="M300.2,52.3c0,4.9,0,9.4-0.1,13.4c-0.1,4-0.4,7.6-1,10.9c-0.6,3.3-1.5,6.3-2.9,9.1
				c-1.3,2.8-3.3,5.5-5.8,8c-3.6,3.6-7.6,6.3-12.1,8.2c-4.5,1.9-9.6,2.8-15.1,2.8c-5.5,0-10.5-0.9-15-2.8c-4.5-1.9-8.5-4.6-12.1-8.2
				c-2.5-2.5-4.5-5.2-5.8-8c-1.3-2.8-2.3-5.8-3-9.1c-0.7-3.3-1-6.9-1.1-10.9c-0.1-4-0.1-8.5-0.1-13.4c0-4.9,0-9.4,0.1-13.4
				c0.1-4,0.4-7.6,1.1-10.9c0.6-3.3,1.6-6.3,3-9.1c1.3-2.8,3.3-5.4,5.8-7.9c3.6-3.6,7.6-6.3,12.1-8.2c4.5-1.9,9.5-2.8,15-2.8
				c5.5,0,10.5,1,15.1,2.8c4.5,1.9,8.6,4.6,12.1,8.2c2.5,2.5,4.5,5.1,5.8,7.9c1.4,2.8,2.3,5.8,2.9,9.1c0.6,3.3,0.9,6.9,1,10.9
				C300.2,42.9,300.2,47.4,300.2,52.3z M284.6,52.3c0-5.2-0.1-9.5-0.2-12.9c-0.1-3.4-0.4-6.3-0.9-8.7c-0.4-2.4-1.1-4.3-1.9-5.9
				c-0.8-1.6-1.9-3-3.1-4.4c-1.9-1.9-4.1-3.5-6.7-4.6c-2.7-1.2-5.5-1.7-8.6-1.7c-3.1,0-5.9,0.6-8.6,1.7c-2.6,1.2-4.9,2.7-6.7,4.6
				c-1.3,1.3-2.3,2.8-3.1,4.4c-0.8,1.6-1.4,3.6-1.9,5.9c-0.5,2.3-0.7,5.2-0.9,8.7c-0.2,3.4-0.2,7.7-0.2,12.9c0,5.2,0.1,9.5,0.2,12.9
				c0.1,3.4,0.4,6.3,0.9,8.7c0.4,2.4,1.1,4.3,1.9,5.9c0.8,1.6,1.9,3,3.1,4.4c1.8,1.9,4.1,3.5,6.7,4.6c2.7,1.2,5.5,1.7,8.6,1.7
				c3.1,0,6-0.6,8.6-1.7c2.6-1.1,4.9-2.7,6.7-4.6c1.2-1.3,2.3-2.8,3.1-4.4c0.8-1.6,1.4-3.6,1.9-5.9c0.4-2.4,0.7-5.2,0.9-8.7
				C284.5,61.8,284.6,57.5,284.6,52.3z"/>
			<path fill="#202221" d="M396.6,51.6c0,3.7,0,7.6-0.1,11.4c0,3.9-0.4,7.6-1,11.3c-0.6,3.7-1.6,7.2-3,10.5
				c-1.4,3.4-3.6,6.5-6.4,9.3c-3.3,3.3-7.2,5.7-11.7,7.3c-4.5,1.6-9.5,2.4-14.9,2.4h-36.2V0.9h36.2c5.4,0,10.4,0.8,14.9,2.4
				c4.6,1.6,8.4,4,11.7,7.3c2.8,2.8,4.9,5.8,6.4,9c1.4,3.2,2.5,6.6,3,10.1c0.6,3.5,0.9,7.1,1,10.8C396.6,44.1,396.6,47.8,396.6,51.6
				z M381,51.6c0-7.1-0.3-13.1-0.7-18c-0.5-4.9-2.1-8.8-4.8-11.8c-4.2-4.6-10.1-6.9-17.5-6.9h-19v74.9h19c7.4,0,13.3-2.3,17.5-6.9
				c2.7-3,4.3-7.1,4.8-12.5C380.7,65,381,58.7,381,51.6z"/>
			<path fill="#202221" d="M477.2,103.8V58.8h-41.8v44.9h-15.6V0.9h15.6v44h41.8v-44h15.6v102.9H477.2z"/>
			<path fill="#202221" d="M590,52.3c0,4.9,0,9.4-0.1,13.4c-0.1,4-0.4,7.6-1,10.9c-0.6,3.3-1.5,6.3-2.9,9.1c-1.3,2.8-3.3,5.5-5.8,8
				c-3.6,3.6-7.6,6.3-12.1,8.2c-4.5,1.9-9.6,2.8-15.1,2.8c-5.5,0-10.5-0.9-15-2.8c-4.4-1.9-8.5-4.6-12.1-8.2c-2.5-2.5-4.4-5.2-5.8-8
				c-1.4-2.8-2.3-5.8-3-9.1c-0.6-3.3-1-6.9-1.1-10.9c-0.1-4-0.2-8.5-0.2-13.4c0-4.9,0-9.4,0.2-13.4c0.1-4,0.4-7.6,1.1-10.9
				c0.6-3.3,1.6-6.3,3-9.1c1.3-2.8,3.3-5.4,5.8-7.9c3.6-3.6,7.6-6.3,12.1-8.2C542.5,1,547.5,0,553,0c5.5,0,10.5,1,15.1,2.8
				c4.5,1.9,8.6,4.6,12.1,8.2c2.5,2.5,4.4,5.1,5.8,7.9c1.4,2.8,2.3,5.8,2.9,9.1c0.6,3.3,0.9,6.9,1,10.9C590,42.9,590,47.4,590,52.3z
				 M574.4,52.3c0-5.2-0.1-9.5-0.2-12.9c-0.2-3.4-0.4-6.3-0.9-8.7c-0.4-2.4-1.1-4.3-1.9-5.9c-0.8-1.6-1.9-3-3.1-4.4
				c-1.8-1.9-4.1-3.5-6.7-4.6c-2.6-1.2-5.5-1.7-8.6-1.7c-3.1,0-6,0.6-8.6,1.7c-2.7,1.2-4.9,2.7-6.7,4.6c-1.3,1.3-2.3,2.8-3.1,4.4
				c-0.8,1.6-1.4,3.6-1.9,5.9c-0.4,2.3-0.7,5.2-0.9,8.7c-0.1,3.4-0.2,7.7-0.2,12.9c0,5.2,0.1,9.5,0.2,12.9c0.1,3.4,0.4,6.3,0.9,8.7
				c0.4,2.4,1.1,4.3,1.9,5.9c0.8,1.6,1.9,3,3.1,4.4c1.8,1.9,4,3.5,6.7,4.6c2.7,1.2,5.5,1.7,8.6,1.7c3.1,0,6-0.6,8.6-1.7
				c2.7-1.1,4.9-2.7,6.7-4.6c1.2-1.3,2.3-2.8,3.1-4.4c0.8-1.6,1.4-3.6,1.9-5.9c0.4-2.4,0.7-5.2,0.9-8.7
				C574.3,61.8,574.4,57.5,574.4,52.3z"/>
			<path fill="#202221" d="M685.5,69.1c0,5.3-1,10.2-2.8,14.5c-1.9,4.4-4.5,8.1-7.8,11.2c-3.3,3.1-7.3,5.5-11.8,7.2
				c-4.5,1.7-9.4,2.6-14.6,2.6c-5.2,0-10.1-0.9-14.6-2.6c-4.5-1.7-8.4-4.1-11.7-7.2c-3.3-3.1-5.9-6.8-7.7-11.2
				c-1.9-4.4-2.8-9.2-2.8-14.5V0.9h15.6v67.5c0,7,1.9,12.4,5.8,16.3c3.8,4,9,5.9,15.5,5.9c6.5,0,11.7-2,15.6-5.9
				c3.9-3.9,5.9-9.4,5.9-16.3V0.9h15.6V69.1z"/>
			<path fill="#202221" d="M775.2,74.4c0,4.7-0.9,9-2.7,12.7c-1.8,3.8-4.4,6.9-7.7,9.5c-3.3,2.6-7.2,4.6-11.7,5.9
				c-4.5,1.3-9.5,2-14.9,2c-7.8,0-14.6-1-20.4-3c-5.8-2-11.1-5.5-16.1-10.6l10.4-10.3c3.8,3.8,7.7,6.3,12,7.7
				c4.2,1.4,9,2.1,14.3,2.1c6.8,0,12-1.4,15.7-4.1c3.7-2.7,5.6-6.6,5.6-11.6c0-4.7-1.3-8.3-4-10.7c-1.4-1.3-2.8-2.2-4.4-2.7
				c-1.5-0.6-3.8-1.1-6.9-1.6l-12.2-1.7c-8.4-1.1-14.9-3.9-19.5-8.2c-5-4.7-7.5-11.3-7.5-19.7c0-4.4,0.8-8.5,2.4-12.2
				c1.6-3.7,3.8-6.9,6.8-9.6c2.9-2.7,6.5-4.8,10.8-6.2c4.2-1.4,9.1-2.2,14.5-2.2c6.9,0,12.8,0.9,17.8,2.8c5,1.8,9.7,4.8,14.2,8.9
				l-10,9.8c-3.2-3.1-6.6-5.2-10.4-6.3c-3.7-1.1-7.7-1.7-12.1-1.7c-6.1,0-10.7,1.5-14,4.6c-3.2,3-4.8,6.8-4.8,11.5
				c0,1.9,0.3,3.7,0.9,5.3c0.6,1.6,1.6,3,3,4.3c2.7,2.4,6.6,4,11.6,4.8l11.7,1.7c4.8,0.8,8.7,1.8,11.6,3c2.9,1.2,5.4,2.8,7.6,4.7
				c2.8,2.5,4.9,5.5,6.3,9.1C774.5,66,775.2,70,775.2,74.4z"/>
			<path fill="#202221" d="M796.2,103.8V0.9H862v14h-50.2V45h42.8v13.9h-42.8v30.9H862v14H796.2z"/>
		</g>
	</g>
</g>
</svg>
