<?xml version="1.0" encoding="utf-8"?>
<!-- Generator: Adobe Illustrator 18.1.1, SVG Export Plug-In . SVG Version: 6.00 Build 0)  -->
<svg version="1.1" id="Layer_1" xmlns="http://www.w3.org/2000/svg" xmlns:xlink="http://www.w3.org/1999/xlink" x="0px" y="0px"
	 viewBox="-618 555.9 180 37.1" enable-background="new -618 555.9 180 37.1" xml:space="preserve">
<path fill="none" d="z"/>
<path fill="none" d="z"/>
<g>
	<g id="Layer_x25_201">
		<g id="Logo_x25_20-_x25_20white">
			<path fill="#25282A" d="M-598,577.7h-2.8l-4.4-15.2l-4.4,15.2h-2.8L-618,556h3.4l3.7,15.5l4.3-15.5h2.6l4.3,15.5l3.7-15.5h3.4
				L-598,577.7z"/>
			<path fill="#25282A" d="M-574.8,566.9c0,1,0,2,0,2.8c0,0.8-0.1,1.6-0.2,2.3c-0.1,0.7-0.3,1.3-0.6,1.9c-0.3,0.6-0.7,1.1-1.2,1.7
				c-0.7,0.7-1.6,1.3-2.5,1.7c-0.9,0.4-2,0.6-3.1,0.6c-1.2,0-2.2-0.2-3.1-0.6c-0.9-0.4-1.8-1-2.5-1.7c-0.5-0.5-0.9-1.1-1.2-1.7
				c-0.3-0.6-0.5-1.2-0.6-1.9c-0.1-0.7-0.2-1.5-0.2-2.3c0-0.8,0-1.8,0-2.8c0-1,0-2,0-2.8c0-0.8,0.1-1.6,0.2-2.3
				c0.1-0.7,0.3-1.3,0.6-1.9c0.3-0.6,0.7-1.1,1.2-1.7c0.7-0.8,1.6-1.3,2.5-1.7c0.9-0.4,2-0.6,3.1-0.6c1.1,0,2.2,0.2,3.1,0.6
				c0.9,0.4,1.8,1,2.5,1.7c0.5,0.5,0.9,1.1,1.2,1.7c0.3,0.6,0.5,1.2,0.6,1.9c0.1,0.7,0.2,1.5,0.2,2.3
				C-574.8,564.9-574.8,565.8-574.8,566.9L-574.8,566.9z M-578.1,566.9c0-1.1,0-2,0-2.7c0-0.7-0.1-1.3-0.2-1.8
				c-0.1-0.5-0.2-0.9-0.4-1.2c-0.2-0.3-0.4-0.6-0.7-0.9c-0.4-0.4-0.9-0.7-1.4-1c-0.6-0.2-1.2-0.4-1.8-0.4c-0.6,0-1.2,0.1-1.8,0.4
				c-0.6,0.2-1,0.6-1.4,1c-0.3,0.3-0.5,0.6-0.6,0.9c-0.2,0.3-0.3,0.8-0.4,1.2c-0.1,0.5-0.2,1.1-0.2,1.8c0,0.7,0,1.6,0,2.7
				c0,1.1,0,2,0,2.7c0,0.7,0.1,1.3,0.2,1.8c0.1,0.5,0.2,0.9,0.4,1.2c0.2,0.3,0.4,0.6,0.6,0.9c0.4,0.4,0.8,0.7,1.4,1
				c0.6,0.2,1.2,0.4,1.8,0.4c0.6,0,1.2-0.1,1.8-0.4c0.6-0.2,1-0.6,1.4-1c0.3-0.3,0.5-0.6,0.7-0.9c0.2-0.3,0.3-0.8,0.4-1.2
				c0.1-0.5,0.2-1.1,0.2-1.8C-578.1,568.9-578.1,568-578.1,566.9L-578.1,566.9z"/>
			<path fill="#25282A" d="M-555.3,566.9c0,1,0,2,0,2.8c0,0.8-0.1,1.6-0.2,2.3c-0.1,0.7-0.3,1.3-0.6,1.9c-0.3,0.6-0.7,1.1-1.2,1.7
				c-0.7,0.7-1.6,1.3-2.5,1.7c-0.9,0.4-2,0.6-3.1,0.6c-1.1,0-2.2-0.2-3.1-0.6c-0.9-0.4-1.8-1-2.5-1.7c-0.5-0.5-0.9-1.1-1.2-1.7
				c-0.3-0.6-0.5-1.2-0.6-1.9c-0.1-0.7-0.2-1.5-0.2-2.3c0-0.8,0-1.8,0-2.8c0-1,0-2,0-2.8c0-0.8,0.1-1.6,0.2-2.3
				c0.1-0.7,0.3-1.3,0.6-1.9c0.3-0.6,0.7-1.1,1.2-1.7c0.7-0.8,1.6-1.3,2.5-1.7c0.9-0.4,2-0.6,3.1-0.6c1.1,0,2.2,0.2,3.1,0.6
				c0.9,0.4,1.8,1,2.5,1.7c0.5,0.5,0.9,1.1,1.2,1.7c0.3,0.6,0.5,1.2,0.6,1.9c0.1,0.7,0.2,1.5,0.2,2.3
				C-555.3,564.9-555.3,565.8-555.3,566.9L-555.3,566.9z M-558.6,566.9c0-1.1,0-2,0-2.7c0-0.7-0.1-1.3-0.2-1.8
				c-0.1-0.5-0.2-0.9-0.4-1.2c-0.2-0.3-0.4-0.6-0.6-0.9c-0.4-0.4-0.9-0.7-1.4-1c-0.6-0.2-1.2-0.4-1.8-0.4c-0.6,0-1.2,0.1-1.8,0.4
				c-0.6,0.2-1,0.6-1.4,1c-0.3,0.3-0.5,0.6-0.7,0.9c-0.2,0.3-0.3,0.8-0.4,1.2c-0.1,0.5-0.2,1.1-0.2,1.8c0,0.7,0,1.6,0,2.7
				c0,1.1,0,2,0,2.7c0,0.7,0.1,1.3,0.2,1.8c0.1,0.5,0.2,0.9,0.4,1.2c0.2,0.3,0.4,0.6,0.7,0.9c0.4,0.4,0.9,0.7,1.4,1
				c0.6,0.2,1.2,0.4,1.8,0.4c0.6,0,1.2-0.1,1.8-0.4c0.6-0.2,1-0.6,1.4-1c0.3-0.3,0.5-0.6,0.6-0.9c0.2-0.3,0.3-0.8,0.4-1.2
				c0.1-0.5,0.2-1.1,0.2-1.8C-558.6,568.9-558.6,568-558.6,566.9L-558.6,566.9z"/>
			<path fill="#25282A" d="M-535.2,566.7c0,0.8,0,1.6,0,2.4c0,0.8-0.1,1.6-0.2,2.4c-0.1,0.8-0.3,1.5-0.6,2.2
				c-0.3,0.7-0.7,1.4-1.3,1.9c-0.7,0.7-1.5,1.2-2.4,1.5c-0.9,0.3-2,0.5-3.1,0.5h-7.6V556h7.6c1.1,0,2.2,0.2,3.1,0.5
				c0.9,0.3,1.8,0.8,2.4,1.5c0.6,0.6,1,1.2,1.3,1.9c0.3,0.7,0.5,1.4,0.6,2.1c0.1,0.7,0.2,1.5,0.2,2.3
				C-535.2,565.1-535.2,565.9-535.2,566.7L-535.2,566.7z M-538.4,566.7c0-1.5-0.1-2.8-0.2-3.8c-0.1-1-0.4-1.9-1-2.5
				c-0.9-1-2.1-1.5-3.7-1.5h-4v15.7h4c1.6,0,2.8-0.5,3.7-1.5c0.6-0.6,0.9-1.5,1-2.6C-538.5,569.5-538.4,568.2-538.4,566.7
				L-538.4,566.7z"/>
			<path fill="#25282A" d="M-518.4,577.7v-9.4h-8.7v9.4h-3.3V556h3.3v9.2h8.7V556h3.3v21.6H-518.4z"/>
			<path fill="#25282A" d="M-494.8,566.9c0,1,0,2,0,2.8c0,0.8-0.1,1.6-0.2,2.3c-0.1,0.7-0.3,1.3-0.6,1.9c-0.3,0.6-0.7,1.1-1.2,1.7
				c-0.7,0.7-1.6,1.3-2.5,1.7c-0.9,0.4-2,0.6-3.1,0.6c-1.1,0-2.2-0.2-3.1-0.6c-0.9-0.4-1.8-1-2.5-1.7c-0.5-0.5-0.9-1.1-1.2-1.7
				c-0.3-0.6-0.5-1.2-0.6-1.9c-0.1-0.7-0.2-1.5-0.2-2.3c0-0.8,0-1.8,0-2.8c0-1,0-2,0-2.8c0-0.8,0.1-1.6,0.2-2.3
				c0.1-0.7,0.3-1.3,0.6-1.9c0.3-0.6,0.7-1.1,1.2-1.7c0.7-0.8,1.6-1.3,2.5-1.7c0.9-0.4,2-0.6,3.1-0.6c1.1,0,2.2,0.2,3.1,0.6
				c0.9,0.4,1.8,1,2.5,1.7c0.5,0.5,0.9,1.1,1.2,1.7c0.3,0.6,0.5,1.2,0.6,1.9c0.1,0.7,0.2,1.5,0.2,2.3
				C-494.8,564.9-494.8,565.8-494.8,566.9L-494.8,566.9z M-498.1,566.9c0-1.1,0-2,0-2.7c0-0.7-0.1-1.3-0.2-1.8
				c-0.1-0.5-0.2-0.9-0.4-1.2c-0.2-0.3-0.4-0.6-0.6-0.9c-0.4-0.4-0.8-0.7-1.4-1c-0.6-0.2-1.2-0.4-1.8-0.4s-1.2,0.1-1.8,0.4
				c-0.6,0.2-1,0.6-1.4,1c-0.3,0.3-0.5,0.6-0.7,0.9c-0.2,0.3-0.3,0.8-0.4,1.2c-0.1,0.5-0.2,1.1-0.2,1.8c0,0.7,0,1.6,0,2.7
				c0,1.1,0,2,0,2.7c0,0.7,0.1,1.3,0.2,1.8c0.1,0.5,0.2,0.9,0.4,1.2c0.2,0.3,0.4,0.6,0.7,0.9c0.4,0.4,0.8,0.7,1.4,1
				c0.6,0.2,1.2,0.4,1.8,0.4s1.2-0.1,1.8-0.4c0.6-0.2,1-0.6,1.4-1c0.3-0.3,0.5-0.6,0.6-0.9c0.2-0.3,0.3-0.8,0.4-1.2
				c0.1-0.5,0.1-1.1,0.2-1.8C-498.1,568.9-498.1,568-498.1,566.9L-498.1,566.9z"/>
			<path fill="#25282A" d="M-474.9,570.4c0,1.1-0.2,2.1-0.6,3.1c-0.4,0.9-0.9,1.7-1.6,2.4c-0.7,0.6-1.5,1.2-2.5,1.5
				c-0.9,0.4-2,0.5-3.1,0.5c-1.1,0-2.1-0.2-3-0.5c-0.9-0.4-1.8-0.9-2.4-1.5c-0.7-0.7-1.2-1.4-1.6-2.4c-0.4-0.9-0.6-1.9-0.6-3.1V556
				h3.3v14.2c0,1.5,0.4,2.6,1.2,3.4c0.8,0.8,1.9,1.2,3.2,1.2c1.4,0,2.4-0.4,3.3-1.2c0.8-0.8,1.2-2,1.2-3.4V556h3.3V570.4z"/>
			<path fill="#25282A" d="M-456.1,571.5c0,1-0.2,1.9-0.6,2.7c-0.4,0.8-0.9,1.5-1.6,2c-0.7,0.5-1.5,1-2.4,1.2
				c-0.9,0.3-2,0.4-3.1,0.4c-1.6,0-3.1-0.2-4.3-0.6c-1.2-0.4-2.3-1.2-3.4-2.2l2.2-2.2c0.8,0.8,1.6,1.3,2.5,1.6
				c0.9,0.3,1.9,0.4,3,0.4c1.4,0,2.5-0.3,3.3-0.9c0.8-0.6,1.2-1.4,1.2-2.4c0-1-0.3-1.7-0.8-2.2c-0.3-0.3-0.6-0.5-0.9-0.6
				c-0.3-0.1-0.8-0.2-1.4-0.3l-2.5-0.4c-1.8-0.2-3.1-0.8-4.1-1.7c-1-1-1.6-2.4-1.6-4.1c0-0.9,0.2-1.8,0.5-2.6c0.3-0.8,0.8-1.5,1.4-2
				c0.6-0.6,1.4-1,2.3-1.3c0.9-0.3,1.9-0.5,3-0.5c1.4,0,2.7,0.2,3.7,0.6c1,0.4,2,1,3,1.9l-2.1,2.1c-0.7-0.6-1.4-1.1-2.2-1.3
				c-0.8-0.2-1.6-0.3-2.5-0.3c-1.3,0-2.2,0.3-2.9,1c-0.7,0.6-1,1.4-1,2.4c0,0.4,0.1,0.8,0.2,1.1c0.1,0.3,0.3,0.6,0.6,0.9
				c0.6,0.5,1.4,0.8,2.4,1l2.4,0.4c1,0.2,1.8,0.4,2.4,0.6c0.6,0.3,1.1,0.6,1.6,1c0.6,0.5,1,1.2,1.3,1.9
				C-456.3,569.7-456.1,570.6-456.1,571.5L-456.1,571.5z"/>
			<path fill="#25282A" d="M-451.7,577.7V556h13.7v2.9h-10.5v6.3h8.9v2.9h-8.9v6.5h10.5v2.9H-451.7z"/>
		</g>
	</g>
	<g>
		<path fill="#25282A" d="M-587.3,587.9v0.8c-0.5-0.3-1-0.4-1.5-0.4c-0.6,0-1.1,0.2-1.5,0.6c-0.4,0.4-0.6,0.8-0.6,1.4
			c0,0.6,0.2,1,0.6,1.4c0.4,0.4,0.9,0.6,1.5,0.6c0.4,0,0.9-0.1,1.4-0.4v0.8c-0.4,0.2-0.9,0.4-1.5,0.4c-0.8,0-1.4-0.3-2-0.8
			c-0.5-0.5-0.8-1.1-0.8-1.9c0-0.7,0.3-1.3,0.8-1.9c0.5-0.5,1.2-0.8,1.9-0.8C-588.3,587.6-587.8,587.7-587.3,587.9z"/>
		<path fill="#25282A" d="M-585.9,587.8h2.8v0.7h-2.1v1.2h2.1v0.7h-2.1v1.7h2.1v0.7h-2.8V587.8z"/>
		<path fill="#25282A" d="M-581.7,587.8h0.7v4.3h1.6v0.7h-2.3V587.8z"/>
		<path fill="#25282A" d="M-578.1,587.8h2.8v0.7h-2.1v1.2h2.1v0.7h-2.1v1.7h2.1v0.7h-2.8V587.8z"/>
		<path fill="#25282A" d="M-573.9,587.8h0.8c0.5,0,0.9,0.1,1.3,0.3c0.3,0.2,0.5,0.5,0.5,0.9c0,0.4-0.2,0.8-0.7,1
			c0.7,0.2,1.1,0.7,1.1,1.3c0,0.4-0.2,0.8-0.6,1c-0.4,0.3-0.9,0.4-1.5,0.4h-0.8V587.8z M-573.2,588.4v1.5c0.4,0,0.7-0.1,0.9-0.2
			s0.3-0.3,0.3-0.6c0-0.2-0.1-0.4-0.3-0.5s-0.4-0.2-0.7-0.2C-573.1,588.4-573.2,588.4-573.2,588.4z M-573.2,590.4v1.7h0.1
			c0.6,0,1-0.1,1.2-0.3c0.2-0.2,0.3-0.4,0.3-0.6c0-0.3-0.1-0.5-0.4-0.6c-0.2-0.2-0.6-0.2-1-0.2H-573.2z"/>
		<path fill="#25282A" d="M-569.3,587.8h1.1c0.5,0,1,0.1,1.3,0.4c0.3,0.3,0.5,0.6,0.5,1c0,0.3-0.1,0.6-0.3,0.9
			c-0.2,0.3-0.6,0.4-1,0.5l1.4,2.1h-0.8l-1.4-2h-0.2v2h-0.7V587.8z M-568.6,588.4v1.7c1,0,1.5-0.3,1.5-0.9c0-0.2-0.1-0.4-0.2-0.5
			c-0.1-0.1-0.3-0.2-0.5-0.3S-568.2,588.4-568.6,588.4z"/>
		<path fill="#25282A" d="M-563,587.6l2.3,5.2h-0.7l-0.6-1.3h-2.1l-0.6,1.3h-0.7L-563,587.6z M-563,589.1l-0.8,1.8h1.6L-563,589.1z"
			/>
		<path fill="#25282A" d="M-560.1,587.8h3v0.7h-1.2v4.3h-0.7v-4.3h-1.2V587.8z"/>
		<path fill="#25282A" d="M-555.7,587.8h0.7v5h-0.7V587.8z"/>
		<path fill="#25282A" d="M-553.4,587.6l3.7,3.8v-3.6h0.7v5.2l-3.7-3.8v3.5h-0.7V587.6z"/>
		<path fill="#25282A" d="M-542.6,588.6l-0.5,0.5c-0.5-0.5-1.1-0.7-1.8-0.7c-0.6,0-1.1,0.2-1.5,0.6c-0.4,0.4-0.6,0.8-0.6,1.4
			c0,0.5,0.2,0.9,0.6,1.3s0.9,0.6,1.6,0.6c1,0,1.6-0.4,1.9-1.3h-1.3v-0.7h2.1c0,0.3,0,0.6-0.1,0.8c0,0.2-0.1,0.4-0.3,0.7
			s-0.3,0.5-0.6,0.7s-0.5,0.3-0.8,0.4s-0.6,0.1-1,0.1c-0.9,0-1.5-0.3-2.1-0.8s-0.8-1.2-0.8-1.8c0-0.7,0.3-1.4,0.8-1.9
			s1.2-0.8,1.9-0.8c0.4,0,0.8,0.1,1.2,0.2C-543.4,587.9-543,588.2-542.6,588.6z"/>
		<path fill="#25282A" d="M-534.9,587.6v3.6h0.5v0.6h-0.5v1h-0.6v-1h-2.8L-534.9,587.6z M-535.5,589.2l-1.6,2h1.6L-535.5,589.2
			L-535.5,589.2z"/>
		<path fill="#25282A" d="M-531.2,587.6c0.5,0,1,0.2,1.3,0.7c0.3,0.5,0.5,1.1,0.5,1.9c0,0.8-0.2,1.5-0.6,1.9
			c-0.4,0.5-0.8,0.7-1.3,0.7c-0.5,0-1-0.2-1.3-0.7c-0.4-0.5-0.5-1.1-0.5-1.9c0-0.8,0.2-1.5,0.5-2S-531.7,587.6-531.2,587.6
			L-531.2,587.6z M-530,590.2c0-0.6-0.1-1-0.3-1.4s-0.5-0.5-0.8-0.5c-0.3,0-0.6,0.2-0.8,0.5s-0.3,0.8-0.3,1.4c0,0.6,0.1,1,0.3,1.4
			c0.2,0.4,0.5,0.5,0.9,0.5c0.3,0,0.6-0.2,0.8-0.5C-530.1,591.3-530,590.8-530,590.2z"/>
		<path fill="#25282A" d="M-525.4,587.8h0.8l1.2,2l1.2-2h0.8l-1.6,2.7v2.3h-0.7v-2.3L-525.4,587.8z"/>
		<path fill="#25282A" d="M-520.1,587.8h2.8v0.7h-2.1v1.2h2.1v0.7h-2.1v1.7h2.1v0.7h-2.8V587.8z"/>
		<path fill="#25282A" d="M-514.1,587.6l2.3,5.2h-0.7l-0.6-1.3h-2.1l-0.6,1.3h-0.7L-514.1,587.6z M-514.1,589.1l-0.8,1.8h1.6
			L-514.1,589.1z"/>
		<path fill="#25282A" d="M-510.4,587.8h1.1c0.5,0,1,0.1,1.3,0.4c0.3,0.3,0.5,0.6,0.5,1c0,0.3-0.1,0.6-0.3,0.9
			c-0.2,0.3-0.6,0.4-1,0.5l1.4,2.1h-0.8l-1.4-2h-0.2v2h-0.7V587.8z M-509.8,588.4v1.7c1,0,1.5-0.3,1.5-0.9c0-0.2-0.1-0.4-0.2-0.5
			s-0.3-0.2-0.5-0.3S-509.4,588.4-509.8,588.4z"/>
		<path fill="#25282A" d="M-502.9,588.3l-0.5,0.4c-0.1-0.2-0.3-0.3-0.4-0.3s-0.3-0.1-0.5-0.1c-0.2,0-0.4,0.1-0.6,0.2
			c-0.2,0.1-0.2,0.3-0.2,0.4c0,0.2,0.1,0.3,0.2,0.4c0.1,0.1,0.4,0.2,0.7,0.4c0.3,0.1,0.6,0.3,0.7,0.4s0.3,0.2,0.4,0.4
			s0.2,0.3,0.3,0.5s0.1,0.3,0.1,0.5c0,0.4-0.2,0.8-0.5,1.1c-0.3,0.3-0.7,0.4-1.1,0.4c-0.4,0-0.8-0.1-1.1-0.3c-0.3-0.2-0.6-0.6-0.7-1
			l0.7-0.2c0.2,0.6,0.6,0.8,1.1,0.8c0.2,0,0.5-0.1,0.6-0.2c0.2-0.1,0.2-0.3,0.2-0.6c0-0.1,0-0.3-0.1-0.4c-0.1-0.1-0.2-0.2-0.3-0.3
			c-0.1-0.1-0.3-0.2-0.6-0.3s-0.5-0.2-0.6-0.3c-0.2-0.1-0.3-0.2-0.4-0.3c-0.1-0.1-0.2-0.3-0.2-0.4s-0.1-0.3-0.1-0.4
			c0-0.4,0.1-0.7,0.4-0.9c0.3-0.3,0.6-0.4,1-0.4c0.3,0,0.5,0.1,0.8,0.2C-503.3,587.9-503.1,588.1-502.9,588.3z"/>
		<path fill="#25282A" d="M-498.8,590.2c0-0.7,0.3-1.3,0.8-1.8c0.5-0.5,1.2-0.8,1.9-0.8c0.7,0,1.4,0.3,1.9,0.8
			c0.5,0.5,0.8,1.1,0.8,1.8c0,0.8-0.3,1.4-0.8,1.9c-0.5,0.5-1.2,0.8-1.9,0.8c-0.8,0-1.4-0.3-1.9-0.8
			C-498.5,591.6-498.8,591-498.8,590.2z M-494,590.3c0-0.5-0.2-1-0.6-1.4c-0.4-0.4-0.9-0.6-1.5-0.6c-0.5,0-1,0.2-1.4,0.6
			c-0.4,0.4-0.6,0.8-0.6,1.4c0,0.5,0.2,1,0.6,1.4s0.9,0.6,1.5,0.6c0.5,0,1-0.2,1.4-0.6C-494.2,591.2-494,590.8-494,590.3z"/>
		<path fill="#25282A" d="M-491.9,587.8h2.8v0.7h-2.1v1.2h2.1v0.7h-2.1v2.4h-0.7V587.8z"/>
		<path fill="#25282A" d="M-481.9,588.3l-0.5,0.4c-0.1-0.2-0.3-0.3-0.4-0.3s-0.3-0.1-0.5-0.1c-0.2,0-0.4,0.1-0.6,0.2
			c-0.2,0.1-0.2,0.3-0.2,0.4c0,0.2,0.1,0.3,0.2,0.4c0.1,0.1,0.4,0.2,0.7,0.4c0.3,0.1,0.6,0.3,0.7,0.4s0.3,0.2,0.4,0.4
			s0.2,0.3,0.3,0.5s0.1,0.3,0.1,0.5c0,0.4-0.2,0.8-0.5,1.1c-0.3,0.3-0.7,0.4-1.1,0.4c-0.4,0-0.8-0.1-1.1-0.3c-0.3-0.2-0.6-0.6-0.7-1
			l0.7-0.2c0.2,0.6,0.6,0.8,1.1,0.8c0.2,0,0.5-0.1,0.6-0.2c0.2-0.1,0.2-0.3,0.2-0.6c0-0.1,0-0.3-0.1-0.4c-0.1-0.1-0.2-0.2-0.3-0.3
			c-0.1-0.1-0.3-0.2-0.6-0.3s-0.5-0.2-0.6-0.3c-0.2-0.1-0.3-0.2-0.4-0.3c-0.1-0.1-0.2-0.3-0.2-0.4s-0.1-0.3-0.1-0.4
			c0-0.4,0.1-0.7,0.4-0.9c0.3-0.3,0.6-0.4,1-0.4c0.3,0,0.5,0.1,0.8,0.2C-482.3,587.9-482.1,588.1-481.9,588.3z"/>
		<path fill="#25282A" d="M-480.6,587.8h3v0.7h-1.2v4.3h-0.7v-4.3h-1.2V587.8z"/>
		<path fill="#25282A" d="M-476.5,587.8h0.8l1.2,2l1.2-2h0.8l-1.6,2.7v2.3h-0.7v-2.3L-476.5,587.8z"/>
		<path fill="#25282A" d="M-471.1,587.8h0.7v4.3h1.6v0.7h-2.3V587.8z"/>
		<path fill="#25282A" d="M-467.6,587.8h2.8v0.7h-2.1v1.2h2.1v0.7h-2.1v1.7h2.1v0.7h-2.8V587.8z"/>
	</g>
</g>
</svg>
