<?xml version="1.0" encoding="UTF-8"?>
<!-- Generator: Adobe Illustrator 18.0.0, SVG Export Plug-In . SVG Version: 6.00 Build 0)  -->
<!DOCTYPE svg PUBLIC "-//W3C//DTD SVG 1.1//EN" "http://www.w3.org/Graphics/SVG/1.1/DTD/svg11.dtd">
<svg version="1.1" id="Layer_1" xmlns="http://www.w3.org/2000/svg" xmlns:xlink="http://www.w3.org/1999/xlink" x="0px" y="0px" viewBox="0 0 104.4 71.9" enable-background="new 0 0 104.4 71.9" xml:space="preserve">
<path id="Twitter__x28_alt_x29__1_" fill="#323031" d="M92.6,32c5.8-0.5,9.8-3.1,11.4-6.8c-2.1,1.3-8.7,2.7-12.3,1.4  c-0.2-0.8-0.4-1.7-0.6-2.4C88.3,14,78.8,5.9,68.9,6.8c0.8-0.3,1.6-0.6,2.4-0.9c1.1-0.4,7.5-1.4,6.5-3.7c-0.9-2-8.7,1.5-10.1,2  c1.9-0.7,5.2-2,5.5-4.2c-3,0.4-5.9,1.8-8.2,3.9c0.8-0.9,1.4-2,1.6-3.1C58.7,5.8,54,16.1,50.3,26c-3-2.9-5.6-5.1-7.9-6.4  c-6.6-3.5-14.4-7.2-26.8-11.8c-0.4,4.1,2,9.5,8.9,13.1c-1.5-0.2-4.2,0.2-6.4,0.8c0.9,4.7,3.8,8.5,11.7,10.4  c-3.6,0.3-5.5,1.1-7.1,2.8c1.7,3.3,5.7,7.1,12.8,6.3c-8,3.5-3.3,9.9,3.2,8.9C27.6,61.7,10.1,60.8,0,51.2  C26.3,87,83.4,72.4,91.9,37.9c6.4,0,10.1-2.2,12.5-4.7C100.7,33.8,95.4,33.2,92.6,32z"/>
</svg>