<?xml version="1.0" encoding="UTF-8"?>
<!-- Generator: Adobe Illustrator 18.0.0, SVG Export Plug-In . SVG Version: 6.00 Build 0)  -->
<!DOCTYPE svg PUBLIC "-//W3C//DTD SVG 1.1//EN" "http://www.w3.org/Graphics/SVG/1.1/DTD/svg11.dtd">
<svg version="1.1" id="Layer_1" xmlns="http://www.w3.org/2000/svg" xmlns:xlink="http://www.w3.org/1999/xlink" x="0px" y="0px" viewBox="0 0 58.9 34.4" enable-background="new 0 0 58.9 34.4" xml:space="preserve">
<g>
	<g>
		<defs>
			<rect id="SVGID_1_" x="0" y="0" width="58.9" height="34.4"/>
		</defs>
		<clipPath id="SVGID_2_">
			<use xlink:href="#SVGID_1_" overflow="visible"/>
		</clipPath>
		<rect x="0" y="31.7" clip-path="url(#SVGID_2_)" fill="#CB001C" width="58.9" height="2.6"/>
		<rect x="0" y="29.1" clip-path="url(#SVGID_2_)" fill="#FFFFFF" width="58.9" height="2.6"/>
		<rect x="0" y="26.4" clip-path="url(#SVGID_2_)" fill="#CB001C" width="58.9" height="2.6"/>
		<rect x="0" y="23.8" clip-path="url(#SVGID_2_)" fill="#FFFFFF" width="58.9" height="2.6"/>
		<rect x="0" y="21.2" clip-path="url(#SVGID_2_)" fill="#CB001C" width="58.9" height="2.6"/>
		<rect x="0" y="18.5" clip-path="url(#SVGID_2_)" fill="#FFFFFF" width="58.9" height="2.6"/>
		<rect x="0" y="15.9" clip-path="url(#SVGID_2_)" fill="#CB001C" width="58.9" height="2.6"/>
		<rect x="0" y="13.2" clip-path="url(#SVGID_2_)" fill="#FFFFFF" width="58.9" height="2.6"/>
		<rect x="0" y="10.6" clip-path="url(#SVGID_2_)" fill="#CB001C" width="58.9" height="2.6"/>
		<rect x="0" y="7.9" clip-path="url(#SVGID_2_)" fill="#FFFFFF" width="58.9" height="2.6"/>
		<rect x="0" y="5.3" clip-path="url(#SVGID_2_)" fill="#CB001C" width="58.9" height="2.6"/>
		<rect x="0" y="2.6" clip-path="url(#SVGID_2_)" fill="#FFFFFF" width="58.9" height="2.6"/>
		<rect x="0" y="0" clip-path="url(#SVGID_2_)" fill="#CB001C" width="58.9" height="2.6"/>
		<rect x="0" y="0" clip-path="url(#SVGID_2_)" fill="#2A3560" width="26.9" height="18.5"/>
		<polygon clip-path="url(#SVGID_2_)" fill="#FFFFFF" points="2.4,2 2.7,2.7 3.4,2.7 2.8,3.2 3,3.9 2.4,3.4 1.8,3.9 2.1,3.2     1.5,2.7 2.2,2.7   "/>
		<polygon clip-path="url(#SVGID_2_)" fill="#FFFFFF" points="2.4,5.1 2.7,5.8 3.4,5.8 2.8,6.3 3,7 2.4,6.5 1.8,7 2.1,6.3 1.5,5.8     2.2,5.8   "/>
		<polygon clip-path="url(#SVGID_2_)" fill="#FFFFFF" points="2.4,8.2 2.7,8.9 3.4,8.9 2.8,9.3 3,10.1 2.4,9.6 1.8,10.1 2.1,9.3     1.5,8.9 2.2,8.9   "/>
		<polygon clip-path="url(#SVGID_2_)" fill="#FFFFFF" points="2.4,11.3 2.7,12 3.4,12 2.8,12.4 3,13.1 2.4,12.7 1.8,13.1 2.1,12.4     1.5,12 2.2,12   "/>
		<polygon clip-path="url(#SVGID_2_)" fill="#FFFFFF" points="2.4,14.4 2.7,15.1 3.4,15.1 2.8,15.5 3,16.2 2.4,15.8 1.8,16.2     2.1,15.5 1.5,15.1 2.2,15.1   "/>
		<polygon clip-path="url(#SVGID_2_)" fill="#FFFFFF" points="4.6,3.7 4.8,4.4 5.5,4.4 4.9,4.8 5.2,5.5 4.6,5.1 4,5.5 4.2,4.8     3.6,4.4 4.4,4.4   "/>
		<polygon clip-path="url(#SVGID_2_)" fill="#FFFFFF" points="4.6,6.8 4.8,7.5 5.5,7.5 4.9,7.9 5.2,8.6 4.6,8.2 4,8.6 4.2,7.9     3.6,7.5 4.4,7.5   "/>
		<polygon clip-path="url(#SVGID_2_)" fill="#FFFFFF" points="4.6,9.8 4.8,10.5 5.5,10.5 4.9,11 5.2,11.7 4.6,11.2 4,11.7 4.2,11     3.6,10.5 4.4,10.5   "/>
		<polygon clip-path="url(#SVGID_2_)" fill="#FFFFFF" points="4.6,12.9 4.8,13.6 5.5,13.6 4.9,14.1 5.2,14.8 4.6,14.3 4,14.8     4.2,14.1 3.6,13.6 4.4,13.6   "/>
		<polygon clip-path="url(#SVGID_2_)" fill="#FFFFFF" points="6.8,2 7,2.7 7.7,2.7 7.1,3.2 7.4,3.9 6.8,3.4 6.2,3.9 6.4,3.2     5.8,2.7 6.5,2.7   "/>
		<polygon clip-path="url(#SVGID_2_)" fill="#FFFFFF" points="6.8,5.1 7,5.8 7.7,5.8 7.1,6.3 7.4,7 6.8,6.5 6.2,7 6.4,6.3 5.8,5.8     6.5,5.8   "/>
		<polygon clip-path="url(#SVGID_2_)" fill="#FFFFFF" points="6.8,8.2 7,8.9 7.7,8.9 7.1,9.3 7.4,10.1 6.8,9.6 6.2,10.1 6.4,9.3     5.8,8.9 6.5,8.9   "/>
		<polygon clip-path="url(#SVGID_2_)" fill="#FFFFFF" points="6.8,11.3 7,12 7.7,12 7.1,12.4 7.4,13.1 6.8,12.7 6.2,13.1 6.4,12.4     5.8,12 6.5,12   "/>
		<polygon clip-path="url(#SVGID_2_)" fill="#FFFFFF" points="6.8,14.4 7,15.1 7.7,15.1 7.1,15.5 7.4,16.2 6.8,15.8 6.2,16.2     6.4,15.5 5.8,15.1 6.5,15.1   "/>
		<polygon clip-path="url(#SVGID_2_)" fill="#FFFFFF" points="8.9,3.7 9.1,4.4 9.9,4.4 9.3,4.8 9.5,5.5 8.9,5.1 8.3,5.5 8.5,4.8     7.9,4.4 8.7,4.4   "/>
		<polygon clip-path="url(#SVGID_2_)" fill="#FFFFFF" points="8.9,6.8 9.1,7.5 9.9,7.5 9.3,7.9 9.5,8.6 8.9,8.2 8.3,8.6 8.5,7.9     7.9,7.5 8.7,7.5   "/>
		<polygon clip-path="url(#SVGID_2_)" fill="#FFFFFF" points="8.9,9.8 9.1,10.5 9.9,10.5 9.3,11 9.5,11.7 8.9,11.2 8.3,11.7 8.5,11     7.9,10.5 8.7,10.5   "/>
		<polygon clip-path="url(#SVGID_2_)" fill="#FFFFFF" points="8.9,12.9 9.1,13.6 9.9,13.6 9.3,14.1 9.5,14.8 8.9,14.3 8.3,14.8     8.5,14.1 7.9,13.6 8.7,13.6   "/>
		<polygon clip-path="url(#SVGID_2_)" fill="#FFFFFF" points="11.1,2 11.3,2.7 12.1,2.7 11.5,3.2 11.7,3.9 11.1,3.4 10.5,3.9     10.7,3.2 10.1,2.7 10.9,2.7   "/>
		<polygon clip-path="url(#SVGID_2_)" fill="#FFFFFF" points="11.1,5.1 11.3,5.8 12.1,5.8 11.5,6.3 11.7,7 11.1,6.5 10.5,7     10.7,6.3 10.1,5.8 10.9,5.8   "/>
		<polygon clip-path="url(#SVGID_2_)" fill="#FFFFFF" points="11.1,8.2 11.3,8.9 12.1,8.9 11.5,9.3 11.7,10.1 11.1,9.6 10.5,10.1     10.7,9.3 10.1,8.9 10.9,8.9   "/>
		<polygon clip-path="url(#SVGID_2_)" fill="#FFFFFF" points="11.1,11.3 11.3,12 12.1,12 11.5,12.4 11.7,13.1 11.1,12.7 10.5,13.1     10.7,12.4 10.1,12 10.9,12   "/>
		<polygon clip-path="url(#SVGID_2_)" fill="#FFFFFF" points="11.1,14.4 11.3,15.1 12.1,15.1 11.5,15.5 11.7,16.2 11.1,15.8     10.5,16.2 10.7,15.5 10.1,15.1 10.9,15.1   "/>
		<polygon clip-path="url(#SVGID_2_)" fill="#FFFFFF" points="13.2,3.7 13.5,4.4 14.2,4.4 13.6,4.8 13.8,5.5 13.2,5.1 12.6,5.5     12.9,4.8 12.3,4.4 13,4.4   "/>
		<polygon clip-path="url(#SVGID_2_)" fill="#FFFFFF" points="13.2,6.8 13.5,7.5 14.2,7.5 13.6,7.9 13.8,8.6 13.2,8.2 12.6,8.6     12.9,7.9 12.3,7.5 13,7.5   "/>
		<polygon clip-path="url(#SVGID_2_)" fill="#FFFFFF" points="13.2,9.8 13.5,10.5 14.2,10.5 13.6,11 13.8,11.7 13.2,11.2 12.6,11.7     12.9,11 12.3,10.5 13,10.5   "/>
		<polygon clip-path="url(#SVGID_2_)" fill="#FFFFFF" points="13.2,12.9 13.5,13.6 14.2,13.6 13.6,14.1 13.8,14.8 13.2,14.3     12.6,14.8 12.9,14.1 12.3,13.6 13,13.6   "/>
		<polygon clip-path="url(#SVGID_2_)" fill="#FFFFFF" points="15.4,2 15.6,2.7 16.4,2.7 15.8,3.2 16,3.9 15.4,3.4 14.8,3.9     15.1,3.2 14.5,2.7 15.2,2.7   "/>
		<polygon clip-path="url(#SVGID_2_)" fill="#FFFFFF" points="15.4,5.1 15.6,5.8 16.4,5.8 15.8,6.3 16,7 15.4,6.5 14.8,7 15.1,6.3     14.5,5.8 15.2,5.8   "/>
		<polygon clip-path="url(#SVGID_2_)" fill="#FFFFFF" points="15.4,8.2 15.6,8.9 16.4,8.9 15.8,9.3 16,10.1 15.4,9.6 14.8,10.1     15.1,9.3 14.5,8.9 15.2,8.9   "/>
		<polygon clip-path="url(#SVGID_2_)" fill="#FFFFFF" points="15.4,11.3 15.6,12 16.4,12 15.8,12.4 16,13.1 15.4,12.7 14.8,13.1     15.1,12.4 14.5,12 15.2,12   "/>
		<polygon clip-path="url(#SVGID_2_)" fill="#FFFFFF" points="15.4,14.4 15.6,15.1 16.4,15.1 15.8,15.5 16,16.2 15.4,15.8     14.8,16.2 15.1,15.5 14.5,15.1 15.2,15.1   "/>
		<polygon clip-path="url(#SVGID_2_)" fill="#FFFFFF" points="17.6,3.7 17.8,4.4 18.5,4.4 17.9,4.8 18.2,5.5 17.6,5.1 17,5.5     17.2,4.8 16.6,4.4 17.3,4.4   "/>
		<polygon clip-path="url(#SVGID_2_)" fill="#FFFFFF" points="17.6,6.8 17.8,7.5 18.5,7.5 17.9,7.9 18.2,8.6 17.6,8.2 17,8.6     17.2,7.9 16.6,7.5 17.3,7.5   "/>
		<polygon clip-path="url(#SVGID_2_)" fill="#FFFFFF" points="17.6,9.8 17.8,10.5 18.5,10.5 17.9,11 18.2,11.7 17.6,11.2 17,11.7     17.2,11 16.6,10.5 17.3,10.5   "/>
		<polygon clip-path="url(#SVGID_2_)" fill="#FFFFFF" points="17.6,12.9 17.8,13.6 18.5,13.6 17.9,14.1 18.2,14.8 17.6,14.3     17,14.8 17.2,14.1 16.6,13.6 17.3,13.6   "/>
		<polygon clip-path="url(#SVGID_2_)" fill="#FFFFFF" points="19.7,2 20,2.7 20.7,2.7 20.1,3.2 20.3,3.9 19.7,3.4 19.2,3.9     19.4,3.2 18.8,2.7 19.5,2.7   "/>
		<polygon clip-path="url(#SVGID_2_)" fill="#FFFFFF" points="19.7,5.1 20,5.8 20.7,5.8 20.1,6.3 20.3,7 19.7,6.5 19.2,7 19.4,6.3     18.8,5.8 19.5,5.8   "/>
		<polygon clip-path="url(#SVGID_2_)" fill="#FFFFFF" points="19.7,8.2 20,8.9 20.7,8.9 20.1,9.3 20.3,10.1 19.7,9.6 19.2,10.1     19.4,9.3 18.8,8.9 19.5,8.9   "/>
		<polygon clip-path="url(#SVGID_2_)" fill="#FFFFFF" points="19.7,11.3 20,12 20.7,12 20.1,12.4 20.3,13.1 19.7,12.7 19.2,13.1     19.4,12.4 18.8,12 19.5,12   "/>
		<polygon clip-path="url(#SVGID_2_)" fill="#FFFFFF" points="19.7,14.4 20,15.1 20.7,15.1 20.1,15.5 20.3,16.2 19.7,15.8     19.2,16.2 19.4,15.5 18.8,15.1 19.5,15.1   "/>
		<polygon clip-path="url(#SVGID_2_)" fill="#FFFFFF" points="21.9,3.7 22.1,4.4 22.9,4.4 22.3,4.8 22.5,5.5 21.9,5.1 21.3,5.5     21.5,4.8 20.9,4.4 21.7,4.4   "/>
		<polygon clip-path="url(#SVGID_2_)" fill="#FFFFFF" points="21.9,6.8 22.1,7.5 22.9,7.5 22.3,7.9 22.5,8.6 21.9,8.2 21.3,8.6     21.5,7.9 20.9,7.5 21.7,7.5   "/>
		<polygon clip-path="url(#SVGID_2_)" fill="#FFFFFF" points="21.9,9.8 22.1,10.5 22.9,10.5 22.3,11 22.5,11.7 21.9,11.2 21.3,11.7     21.5,11 20.9,10.5 21.7,10.5   "/>
		<polygon clip-path="url(#SVGID_2_)" fill="#FFFFFF" points="21.9,12.9 22.1,13.6 22.9,13.6 22.3,14.1 22.5,14.8 21.9,14.3     21.3,14.8 21.5,14.1 20.9,13.6 21.7,13.6   "/>
		<polygon clip-path="url(#SVGID_2_)" fill="#FFFFFF" points="24.1,2 24.3,2.7 25,2.7 24.4,3.2 24.7,3.9 24.1,3.4 23.5,3.9     23.7,3.2 23.1,2.7 23.9,2.7   "/>
		<polygon clip-path="url(#SVGID_2_)" fill="#FFFFFF" points="24.1,5.1 24.3,5.8 25,5.8 24.4,6.3 24.7,7 24.1,6.5 23.5,7 23.7,6.3     23.1,5.8 23.9,5.8   "/>
		<polygon clip-path="url(#SVGID_2_)" fill="#FFFFFF" points="24.1,8.2 24.3,8.9 25,8.9 24.4,9.3 24.7,10.1 24.1,9.6 23.5,10.1     23.7,9.3 23.1,8.9 23.9,8.9   "/>
		<polygon clip-path="url(#SVGID_2_)" fill="#FFFFFF" points="24.1,11.3 24.3,12 25,12 24.4,12.4 24.7,13.1 24.1,12.7 23.5,13.1     23.7,12.4 23.1,12 23.9,12   "/>
		<polygon clip-path="url(#SVGID_2_)" fill="#FFFFFF" points="24.1,14.4 24.3,15.1 25,15.1 24.4,15.5 24.7,16.2 24.1,15.8     23.5,16.2 23.7,15.5 23.1,15.1 23.9,15.1   "/>
	</g>
</g>
</svg>